<svg version="1.0" xmlns="http://www.w3.org/2000/svg" width="96" height="96t" viewBox="0 0 96.000000 96.000000" preserveAspectRatio="xMidYMid meet">
    <g transform="translate(0.000000,96.000000) scale(0.100000,-0.100000)" fill="#A80030" stroke="none">
    <path
        d="M334 910 c-82 -39 -119 -72 -172 -154 -54 -84 -65 -132 -60 -276 4 -127 4 -129 46 -212 72 -148 205 -252 332 -263 38 -3 47 -2 30 3 -14 5 -45 19 -70 32 -25 13 -47 22 -49 20 -1 -1 -33 25 -71 58 -55 50 -71 71 -85 114 -9 29 -26 63 -37 75 -53 57 -68 240 -28 329 23 49 90 120 161 171 60 43 161 66 231 53 165 -32 256 -214 179 -360 -39 -75 -93 -112 -169 -118 -52 -4 -61 -1 -90 23 -38 31 -57 65 -66 115 -8 47 27 120 68 139 39 18 99 16 133 -5 l28 -18 -19 22 c-24 28 -78 45 -116 37 -66 -15 -130 -100 -130 -172 1 -83 54 -153 134 -174 95 -26 202 11 248 86 10 17 18 26 18 20 1 -5 14 23 30 64 29 75 30 107 4 174 -13 35 15 15 29 -20 9 -21 16 -30 16 -20 1 23 -31 86 -80 159 -55 80 -147 122 -290 131 -71 5 -79 3 -155 -33z" />
    </g>
</svg>