<svg xmlns="http://www.w3.org/2000/svg" viewBox="0 0 1440 320"><path fill="#121212" fill-opacity="3" d="M0,192L24,213.3C48,235,96,277,144,250.7C192,224,240,128,288,122.7C336,117,384,203,432,224C480,245,528,203,576,160C624,117,672,75,720,80C768,85,816,139,864,138.7C912,139,960,85,1008,80C1056,75,1104,117,1152,154.7C1200,192,1248,224,1296,245.3C1344,267,1392,277,1416,282.7L1440,288L1440,320L1416,320C1392,320,1344,320,1296,320C1248,320,1200,320,1152,320C1104,320,1056,320,1008,320C960,320,912,320,864,320C816,320,768,320,720,320C672,320,624,320,576,320C528,320,480,320,432,320C384,320,336,320,288,320C240,320,192,320,144,320C96,320,48,320,24,320L0,320Z"></path></svg>